<?xml version="1.0" standalone="no"?>
<!DOCTYPE svg PUBLIC "-//W3C//DTD SVG 1.1//EN" "http://www.w3.org/Graphics/SVG/1.1/DTD/svg11.dtd" >
<svg xmlns="http://www.w3.org/2000/svg" xmlns:xlink="http://www.w3.org/1999/xlink" version="1.1">
<metadata></metadata>
<defs>
<font id="slabo_27pxregular" horiz-adv-x="986" >
<font-face units-per-em="2048" ascent="1638" descent="-410" />
<missing-glyph horiz-adv-x="379" />
<glyph unicode="&#xfb01;" horiz-adv-x="1061" d="M885 1214h-152v179q-66 15 -136 15q-129 0 -186 -51.5t-57 -168.5v-202h531v-860h126v-126h-404v126h126v734h-379v-734h126v-126h-404v126h126v734h-126v126h126v185q0 177 98.5 268t301.5 91q147 0 283 -43v-273z" />
<glyph unicode="&#xfb02;" horiz-adv-x="1061" d="M885 1522v-1396h126v-126h-379v126h101v1262q-63 20 -141 20q-126 0 -182 -51.5t-56 -163.5v-207h228v-126h-228v-734h101v-126h-379v126h126v734h-126v126h126v185q0 182 104 270.5t283 88.5q86 0 175 -23l111 15h10z" />
<glyph unicode="&#xfb03;" horiz-adv-x="1592" d="M733 1368q-71 28 -154 28q-126 0 -175.5 -52t-49.5 -163v-195h379v185q0 177 98.5 268t301.5 91q147 0 283 -43v-273h-152v179q-66 15 -136 15q-129 0 -186 -51.5t-57 -168.5v-202h531v-860h126v-126h-404v126h126v734h-379v-734h126v-126h-404v126h126v734h-379v-734 h126v-126h-404v126h126v734h-126v126h126v172q0 182 97.5 270.5t276.5 88.5q76 0 157 -18v-131z" />
<glyph unicode="&#xfb04;" horiz-adv-x="1592" d="M1416 1522v-1396h126v-126h-379v126h101v1262q-63 20 -141 20q-126 0 -182 -51.5t-56 -163.5v-207h227v-126h-227v-734h101v-126h-379v126h126v734h-379v-734h126v-126h-404v126h126v734h-126v126h126v172q0 182 97.5 270.5t276.5 88.5q76 0 157 -18v-131q-71 28 -154 28 q-126 0 -175.5 -52t-49.5 -163v-195h379v185q0 182 104 270.5t283 88.5q86 0 175 -23l111 15h10z" />
<glyph horiz-adv-x="0" />
<glyph unicode="&#xd;" horiz-adv-x="379" />
<glyph horiz-adv-x="0" />
<glyph horiz-adv-x="0" />
<glyph unicode=" "  horiz-adv-x="379" />
<glyph unicode="&#x09;" horiz-adv-x="379" />
<glyph unicode="&#xa0;" horiz-adv-x="379" />
<glyph unicode="!" horiz-adv-x="606" d="M233 1365h187l-41 -986h-103zM202 99q0 61 34.5 97.5t92.5 36.5t92 -37t34 -87q0 -63 -35.5 -98.5t-95.5 -35.5q-56 0 -89 35.5t-33 88.5z" />
<glyph unicode="&#x22;" horiz-adv-x="682" d="M106 1365h167l-33 -455h-101zM409 1365h167l-33 -455h-101z" />
<glyph unicode="#" horiz-adv-x="1061" d="M986 860l-10 -101h-200l-28 -304h203l-10 -101h-203l-30 -354h-126l32 354h-217l-30 -354h-124l33 354h-200l10 101h197l28 304h-200l10 101h200l33 354h121l-33 -354h220l33 354h122l-33 -354h202zM407 455h218l27 304h-217z" />
<glyph unicode="$" horiz-adv-x="1061" d="M455 -177v172q-180 3 -354 63v271h132v-175q86 -28 222 -30v506q-197 81 -278 165.5t-81 218.5q0 144 95 237.5t264 113.5v177h116v-174q185 -10 319 -66v-240h-131v149q-86 28 -188 30v-495q192 -81 278.5 -168t86.5 -219q0 -142 -92.5 -238t-272.5 -118v-180h-116z M779 334q0 96 -56 151.5t-152 98.5v-455q106 18 157 73.5t51 131.5zM253 1034q0 -94 53 -147t149 -93v445q-104 -13 -153 -70t-49 -135z" />
<glyph unicode="%" horiz-adv-x="1972" d="M126 958q0 212 94 322.5t245 110.5q147 0 233 -110t86 -308q0 -220 -92.5 -331t-241.5 -111q-144 0 -234 111t-90 316zM268 966q0 -157 47 -236.5t140 -79.5q91 0 139 79.5t48 236.5q0 154 -44 230t-143 76q-91 0 -139 -72t-48 -234zM1529 1391l-935 -1391h-152l936 1391 h151zM1188 430q0 212 94 322.5t245 110.5q147 0 233 -110t86 -308q0 -220 -92.5 -331t-241.5 -111q-144 0 -234 111t-90 316zM1330 438q0 -157 47 -236.5t140 -79.5q91 0 139 79.5t48 236.5q0 154 -44 230t-143 76q-91 0 -139 -72t-48 -234z" />
<glyph unicode="&#x26;" horiz-adv-x="1365" d="M1037 708h-127v126h405v-126h-147q-13 -243 -116 -432q81 -83 136.5 -122.5t111.5 -39.5q35 0 65 5v-119q-46 -13 -93 -13q-73 0 -137.5 35.5t-171.5 136.5q-169 -185 -407 -184q-195 0 -316 112.5t-121 274.5q0 243 260 394q-152 172 -151 314q0 142 92 231.5t241 89.5 q142 0 233 -77.5t91 -203.5q0 -106 -69.5 -193.5t-221.5 -178.5q40 -46 91 -97.5t99 -101.5l172 -170q76 154 81 339zM278 392q0 -129 82 -210t216 -81q167 0 296 142q-81 78 -187 183t-230 244q-177 -101 -177 -278zM738 1100q0 78 -50.5 121t-131.5 43t-130 -45.5 t-49 -133.5q0 -119 141 -263q111 61 165.5 129t54.5 149z" />
<glyph unicode="'" horiz-adv-x="379" d="M106 1365h167l-33 -455h-101z" />
<glyph unicode="(" horiz-adv-x="682" d="M278 614q0 -533 354 -917h-147q-369 410 -366 907q-3 496 366 913h147q-354 -382 -354 -903z" />
<glyph unicode=")" horiz-adv-x="682" d="M405 604q0 531 -354 913h146q369 -417 367 -903q3 -508 -367 -917h-146q354 384 354 907z" />
<glyph unicode="*" horiz-adv-x="910" d="M546 1441l-23 -283l268 106l43 -152l-275 -58l187 -225l-127 -96l-151 251l-152 -248l-124 96l182 222l-275 61l48 149l263 -103l-21 280h157z" />
<glyph unicode="+" d="M561 126h-136v337h-349v136h349v337h136v-337h349v-136h-349v-337z" />
<glyph unicode="," horiz-adv-x="530" d="M276 298q116 -109 116 -227q0 -164 -192 -334l-79 73q109 104 107 200q0 76 -97 164z" />
<glyph unicode="-" horiz-adv-x="530" d="M76 582h379v-127h-379v127z" />
<glyph unicode="." horiz-adv-x="455" d="M126 99q0 61 34.5 97.5t92.5 36.5t92 -37t34 -87q0 -63 -35.5 -98.5t-95.5 -35.5q-56 0 -89 35.5t-33 88.5z" />
<glyph unicode="/" horiz-adv-x="606" d="M506 1365h131l-536 -1668h-131z" />
<glyph unicode="0" horiz-adv-x="1061" d="M101 566q0 281 120 439t323 158q187 0 302 -153t115 -428q0 -273 -117.5 -440t-317.5 -167q-192 0 -308.5 161.5t-116.5 429.5zM260 576q0 -230 72.5 -352.5t195.5 -122.5q131 0 202.5 125t71.5 356q0 220 -67.5 337.5t-201.5 117.5q-129 0 -201 -115.5t-72 -345.5z" />
<glyph unicode="1" horiz-adv-x="606" d="M278 0v1011h-177v127h329v-1138h-152z" />
<glyph unicode="2" horiz-adv-x="910" d="M834 278v-278h-758v114q238 192 397 390.5t159 334.5q0 91 -43 144.5t-159 53.5q-99 0 -197 -43v-185h-132v258q174 96 347 96q167 0 255 -82t88 -226q0 -164 -160.5 -366.5t-352.5 -357.5v-5h425v152h131z" />
<glyph unicode="3" horiz-adv-x="910" d="M25 -81q144 -43 294 -43q174 0 265 69.5t91 208.5q0 131 -87 192t-262 61h-73v124h50q152 0 237 76t85 210q0 106 -58.5 163t-182.5 57q-111 0 -202 -38v-165h-131v241q167 88 343 88q182 0 286 -93.5t104 -242.5q0 -225 -243 -336v-6q293 -63 293 -331q0 -88 -34 -162.5 t-99.5 -129t-164.5 -85t-225 -30.5q-152 0 -286 41v131z" />
<glyph unicode="4" horiz-adv-x="1061" d="M683 152h-632v111l659 875h124v-860h152v-126h-152v-304h-151v304zM220 278h463v612h-5l-458 -607v-5z" />
<glyph unicode="5" d="M101 -91q124 -33 250 -33q177 0 276 79.5t99 244.5q0 149 -97.5 227.5t-302.5 78.5q-94 0 -200 -10v642h688v-278h-131v151h-418v-384q53 5 97 5q235 0 379 -107.5t144 -314.5q0 -202 -144 -332.5t-395 -130.5q-131 0 -245 28v134z" />
<glyph unicode="6" horiz-adv-x="1061" d="M885 1252q-83 13 -139 12q-238 0 -358 -148t-128 -418l5 -3q134 139 327 139q174 0 284 -111t110 -278q0 -187 -119 -316t-311 -129q-212 0 -333.5 165.5t-121.5 471.5q0 349 170.5 551.5t474.5 202.5q61 0 139 -13v-126zM260 574q13 -197 87.5 -322.5t213.5 -125.5 q116 0 191 78.5t75 217.5q0 129 -69.5 207.5t-193.5 78.5q-173 0 -304 -134z" />
<glyph unicode="7" horiz-adv-x="910" d="M278 -228q8 159 52 326t107.5 328t139 308.5t149.5 271.5l-3 5h-516v-169h-131v296h809v-109q-88 -144 -165.5 -295.5t-137 -308.5t-94.5 -320t-38 -333h-172z" />
<glyph unicode="8" horiz-adv-x="1061" d="M367 721v5q-248 124 -248 316q0 157 120 253t307 96q185 0 291 -88.5t106 -235.5q0 -197 -263 -331v-5q147 -76 217.5 -164.5t70.5 -199.5q0 -157 -123.5 -262t-323.5 -105q-195 0 -311 96t-116 250q0 233 273 375zM478 665q-225 -114 -225 -311q0 -114 76 -171t197 -57 q129 0 206 61t77 157t-79.5 168t-251.5 153zM574 789q217 119 217 273q0 101 -72 151.5t-186 50.5t-188 -50.5t-74 -138.5q0 -51 24 -90t64 -72t96 -62t119 -62z" />
<glyph unicode="9" horiz-adv-x="1061" d="M177 -114q81 -13 139 -12q235 0 356.5 153t129.5 436l-6 2q-134 -137 -326 -136q-174 0 -284 111t-110 283q0 187 119 313.5t311 126.5q215 0 335 -165.5t120 -471.5q0 -359 -172 -569t-473 -210q-61 0 -139 13v126zM802 589q-13 197 -87.5 322.5t-213.5 125.5 q-116 0 -191 -78.5t-75 -217.5q0 -129 69.5 -207.5t193.5 -78.5q170 0 304 134z" />
<glyph unicode=":" horiz-adv-x="530" d="M152 99q0 61 34 97.5t92 36.5t92.5 -37t34.5 -87q0 -63 -35.5 -98.5t-96.5 -35.5q-56 0 -88.5 35.5t-32.5 88.5zM152 852q0 61 34 97.5t92 36.5t92.5 -36.5t34.5 -87.5q0 -63 -35.5 -98.5t-96.5 -35.5q-56 0 -88.5 35.5t-32.5 88.5z" />
<glyph unicode=";" horiz-adv-x="530" d="M152 852q0 61 34 97.5t92 36.5t92.5 -36.5t34.5 -87.5q0 -63 -35.5 -98.5t-96.5 -35.5q-56 0 -88.5 35.5t-32.5 88.5zM301 298q116 -109 116 -227q0 -164 -192 -334l-78 73q109 104 106 200q0 76 -96 164z" />
<glyph unicode="&#x3c;" d="M245 528l665 -232v-144l-834 311v136l834 311v-139l-665 -238v-5z" />
<glyph unicode="=" d="M76 622v137h834v-137h-834zM76 303v137h834v-137h-834z" />
<glyph unicode="&#x3e;" d="M741 533l-665 238v139l834 -311v-136l-834 -311v144l665 232v5z" />
<glyph unicode="?" horiz-adv-x="758" d="M152 1358q99 33 205 33q154 0 255 -88.5t101 -240.5q0 -111 -45.5 -187t-128.5 -142q-83 -68 -125 -122.5t-42 -130.5q0 -46 15 -101h-111q-28 76 -28 152q0 86 39 150.5t110 120.5q68 56 113.5 108.5t45.5 146.5q0 99 -62 149.5t-163 50.5q-81 0 -179 -31v132zM202 99 q0 61 34.5 97.5t92.5 36.5t92 -37t34 -87q0 -63 -35.5 -98.5t-95.5 -35.5q-56 0 -89 35.5t-33 88.5z" />
<glyph unicode="@" horiz-adv-x="1668" d="M1214 -314q-185 -66 -380 -65q-324 0 -516 206t-192 545q0 359 214 600.5t550 241.5q306 0 492 -201t186 -500q0 -228 -106.5 -383t-263.5 -155q-94 0 -153 56.5t-59 165.5h-2q-94 -222 -261 -222q-106 0 -168 96t-62 245q0 220 110 369t300 149q114 0 252 -45l-25 -347 q-15 -149 -15 -227q0 -111 83 -111q96 0 159.5 117.5t63.5 291.5q0 253 -150.5 410t-383.5 157q-263 0 -436 -196t-173 -497q0 -291 154.5 -459t411.5 -168q174 0 370 66v-140zM1004 703q-51 15 -109 15q-109 0 -173.5 -112.5t-64.5 -279.5q0 -104 24 -160.5t80 -56.5 q88 0 150 137.5t78 286.5z" />
<glyph unicode="A" horiz-adv-x="1213" d="M405 126v-126h-405v126h126l407 1252h147l415 -1252h119v-126h-405v126h127l-124 380h-423l-118 -380h134zM594 1163l-167 -531h344l-172 531h-5z" />
<glyph unicode="B" horiz-adv-x="1137" d="M776 738q134 -33 197.5 -124t63.5 -215q0 -187 -123 -293t-378 -106h-460v126h152v1113h-152v126h463q228 0 336.5 -83.5t108.5 -239.5q0 -106 -49.5 -183.5t-158.5 -115.5v-5zM541 126q169 0 251.5 62t82.5 211q0 131 -77 194.5t-244 63.5h-175v-531h162zM541 784 q283 0 283 235q0 119 -70.5 169.5t-225.5 50.5h-149v-455h162z" />
<glyph unicode="C" horiz-adv-x="1137" d="M1062 76q-187 -101 -379 -101q-271 0 -426.5 188t-155.5 520q0 329 159.5 518.5t424.5 189.5q185 0 377 -81v-299h-139v200q-101 40 -243 41q-202 0 -311 -138t-109 -421q0 -296 114 -437.5t316 -141.5q169 0 372 101v-139z" />
<glyph unicode="D" horiz-adv-x="1289" d="M76 126h152v1113h-152v126h452q329 0 486 -163t157 -484q0 -354 -178.5 -536t-509.5 -182h-407v126zM379 126h122q245 0 377.5 139.5t132.5 437.5q0 278 -121 407t-389 129h-122v-1113z" />
<glyph unicode="E" horiz-adv-x="1061" d="M852 126v177h134v-303h-910v126h152v1113h-152v126h885v-303h-134v177h-448v-480h253v126h127v-405h-127v152h-253v-506h473z" />
<glyph unicode="F" d="M379 607v-481h177v-126h-480v126h152v1113h-152v126h885v-303h-134v177h-448v-506h278v127h127v-405h-127v152h-278z" />
<glyph unicode="G" horiz-adv-x="1289" d="M784 632h430v-126h-102v-443q-190 -88 -394 -88q-293 0 -455 188t-162 520q0 329 167 518.5t448 189.5q195 0 396 -81v-324h-139v225q-111 40 -263 41q-217 0 -333.5 -138t-116.5 -421q0 -296 121.5 -437.5t341.5 -141.5q116 0 240 35v357h-179v126z" />
<glyph unicode="H" horiz-adv-x="1441" d="M76 126h152v1113h-152v126h455v-126h-152v-480h683v480h-152v126h455v-126h-151v-1113h151v-126h-455v126h152v506h-683v-506h152v-126h-455v126z" />
<glyph unicode="I" horiz-adv-x="606" d="M76 126h152v1113h-152v126h455v-126h-152v-1113h152v-126h-455v126z" />
<glyph unicode="J" horiz-adv-x="606" d="M15 -240q33 -3 61 -3q83 0 117.5 38t34.5 154v1290h-152v126h455v-126h-152v-1272q0 -169 -64.5 -257.5t-223.5 -88.5q-38 0 -76 7v132z" />
<glyph unicode="K" horiz-adv-x="1213" d="M759 1239v126h404v-126h-126l-466 -516l488 -597h155v-126h-455v126h103v5l-470 579l473 524v5h-106zM76 126h152v1113h-152v126h455v-126h-152v-1113h152v-126h-455v126z" />
<glyph unicode="L" d="M531 1239h-152v-1113h423v177h134v-303h-860v126h152v1113h-152v126h455v-126z" />
<glyph unicode="M" horiz-adv-x="1744" d="M1363 1145l-443 -1158h-116l-440 1136h-5l-25 -997h121v-126h-404v126h144l33 1113h-150v126h354l438 -1130h5l430 1130h356v-126h-144l28 -1113h149v-126h-430v126h129l-25 1019h-5z" />
<glyph unicode="N" horiz-adv-x="1365" d="M996 1239h-152v126h445v-126h-151v-1239h-147l-617 1064h-5v-938h152v-126h-445v126h152v1113h-152v126h303l612 -1051h5v925z" />
<glyph unicode="O" horiz-adv-x="1289" d="M119 685q0 329 145.5 517.5t392.5 188.5q243 0 378.5 -182t135.5 -506q0 -344 -145.5 -536t-388.5 -192q-235 0 -376.5 188t-141.5 522zM278 693q0 -283 97.5 -431t269.5 -148t269 148t97 433q0 276 -92 416.5t-269 140.5q-180 0 -276 -136.5t-96 -422.5z" />
<glyph unicode="P" horiz-adv-x="1061" d="M379 556v-430h177v-126h-480v126h152v1113h-152v126h457q222 0 328.5 -97t106.5 -282q0 -210 -120 -320t-350 -110h-119zM506 683q147 0 225 67t78 218q0 154 -71 212.5t-220 58.5h-139v-556h127z" />
<glyph unicode="Q" horiz-adv-x="1289" d="M119 685q0 329 146.5 517.5t391.5 188.5q240 0 377 -182t137 -506q0 -301 -106.5 -478t-262.5 -222v-6q66 -119 172 -182t232 -63q121 0 235 48v-129q-119 -51 -253 -50q-174 0 -322 97t-239 257q-230 8 -369 193.5t-139 516.5zM278 693q0 -283 97.5 -431t269.5 -148 t269 148t97 433q0 276 -91 416.5t-270 140.5q-180 0 -276 -136.5t-96 -422.5z" />
<glyph unicode="R" horiz-adv-x="1137" d="M379 126h152v-126h-455v126h152v1113h-134v126h439q235 0 344 -86t109 -255q0 -301 -319 -369v-5q35 -20 76 -62t101 -156l167 -306h127v-126h-243q-30 68 -58 121t-53 99l-94 174q-51 88 -81 134t-68 76q-38 28 -99 28h-63v-506zM501 759q162 0 244 59t82 191 q0 129 -74.5 179.5t-234.5 50.5h-139v-480h122z" />
<glyph unicode="S" d="M448 -25q-192 0 -357 71v283h137v-187q88 -33 232 -33q139 0 216 64.5t77 175.5q0 58 -21.5 100t-58 73.5t-92 58t-126.5 54.5q-68 25 -135 54t-121.5 72t-88.5 109t-34 157q0 164 121.5 264t328.5 100q182 0 334 -76v-278h-137v182q-91 38 -210 38q-139 0 -209.5 -66 t-70.5 -157q0 -56 21.5 -95t60.5 -69.5t96 -53t128 -50.5t137.5 -59.5t118.5 -75.5t83.5 -108.5t31.5 -163.5q0 -174 -125 -279t-337 -105z" />
<glyph unicode="T" horiz-adv-x="1061" d="M278 126h177v1113h-278v-202h-134v328h976v-328h-134v202h-278v-1113h177v-126h-506v126z" />
<glyph unicode="U" horiz-adv-x="1365" d="M354 437q0 -159 88.5 -241t237.5 -82q162 0 251.5 86t89.5 245v794h-154v126h448v-126h-152v-786q0 -212 -130 -345t-355 -133q-217 0 -346.5 125t-129.5 335v804h-151v126h455v-126h-152v-802z" />
<glyph unicode="V" horiz-adv-x="1213" d="M619 202l319 1037h-129v126h405v-126h-132l-402 -1252h-147l-409 1252h-124v126h405v-126h-122l331 -1037h5z" />
<glyph unicode="W" horiz-adv-x="1820" d="M1239 202l306 1037h-129v126h404v-126h-131l-389 -1252h-147l-243 741h-5l-238 -741h-146l-397 1252h-124v126h405v-126h-122l319 -1037h5l235 731l-101 306h-134v126h430v-126h-144l341 -1037h5z" />
<glyph unicode="X" horiz-adv-x="1137" d="M162 1239h-137v126h430v-126h-121l248 -410l252 410h-126v126h404v-126h-123l-337 -526l359 -587h127v-126h-430v126h129l-286 468l-275 -468h129v-126h-405v126h121l362 582z" />
<glyph unicode="Y" horiz-adv-x="1213" d="M531 607l-415 632h-116v126h405v-126h-117l329 -501l319 501h-127v126h405v-126h-119l-412 -632v-481h177v-126h-506v126h177v481z" />
<glyph unicode="Z" horiz-adv-x="1137" d="M76 114l741 1125h-582v-177h-134v303h910v-113l-740 -1126h632v177h134v-303h-961v114z" />
<glyph unicode="[" horiz-adv-x="606" d="M152 1517h354v-126h-215v-1568h215v-126h-354v1820z" />
<glyph unicode="\" horiz-adv-x="606" d="M637 -303h-131l-536 1668h131z" />
<glyph unicode="]" horiz-adv-x="606" d="M455 -303h-354v126h215v1568h-215v126h354v-1820z" />
<glyph unicode="^" horiz-adv-x="910" d="M453 1214l-238 -531h-147l331 695h114l331 -695h-146l-240 531h-5z" />
<glyph unicode="_" horiz-adv-x="758" d="M-25 -114h809v-114h-809v114z" />
<glyph unicode="`" horiz-adv-x="455" d="M379 1087h-116l-202 304h177z" />
<glyph unicode="a" d="M152 913q174 99 356 98q157 0 241.5 -72t84.5 -229v-584h127v-126h-263l-8 114l-5 2q-121 -142 -298 -141q-131 0 -208.5 77t-77.5 196q0 159 138 237.5t401 78.5h43v149q0 94 -44.5 133t-147.5 39q-124 0 -208 -41v-136h-131v205zM622 455q-174 0 -268 -44t-94 -156 q0 -81 45.5 -117.5t116.5 -36.5q152 0 261 124v230h-61z" />
<glyph unicode="b" horiz-adv-x="1061" d="M341 116q76 -15 150 -15q152 0 231.5 93.5t79.5 298.5q0 182 -62 287t-189 105q-111 0 -210 -83v-686zM341 923l5 -3q106 91 251 91q164 0 264 -139t100 -356q0 -253 -128 -397t-350 -144q-144 0 -293 48v1368h-127v126h278v-594z" />
<glyph unicode="c" horiz-adv-x="910" d="M809 38q-121 -63 -265 -63q-205 0 -324 131.5t-119 376.5q0 248 125 388t325 140q139 0 258 -58v-245h-134v154q-56 23 -136 23q-142 0 -210.5 -90t-68.5 -284q0 -207 73.5 -306t212.5 -99q137 0 263 68v-136z" />
<glyph unicode="d" horiz-adv-x="1061" d="M582 1391v126h303v-1391h126v-126h-270l-8 86l-5 2q-106 -114 -253 -113q-172 0 -273 139t-101 364q0 238 121.5 385.5t313.5 147.5q96 0 192 -45l5 2v423h-151zM733 850q-94 35 -189 35q-144 0 -214 -95t-70 -294q0 -192 62 -293.5t191 -101.5q126 0 220 101v648z" />
<glyph unicode="e" horiz-adv-x="910" d="M809 190v-137q-126 -78 -296 -78q-200 0 -312.5 134t-112.5 374q0 248 119 388t299 140q147 0 237.5 -116t90.5 -331v-79h-589q5 -177 69.5 -275.5t206.5 -103.5q157 1 288 84zM683 607q0 144 -53.5 211t-149.5 67q-94 0 -157 -69.5t-75 -208.5h435z" />
<glyph unicode="f" horiz-adv-x="606" d="M738 1264h-131v137q-38 8 -76 7q-94 0 -135.5 -50.5t-41.5 -164.5v-207h228v-126h-228v-734h126v-126h-404v126h126v734h-126v126h126v185q0 182 87.5 270.5t238.5 88.5q99 0 210 -38v-228z" />
<glyph unicode="g" horiz-adv-x="910" d="M101 655q0 157 98.5 256.5t253.5 99.5q56 0 101 -12q40 -13 91 -13h240v-121h-144v-3q48 -83 48 -184q0 -167 -97.5 -271t-251.5 -104q-71 0 -126 21q-48 -56 -49 -107q0 -30 20.5 -47.5t63.5 -17.5h177q167 0 256.5 -68.5t89.5 -202.5q0 -164 -131.5 -262.5 t-330.5 -98.5q-162 0 -260.5 75.5t-98.5 194.5q0 137 136 250q-61 51 -61 132q0 101 109 192q-134 104 -134 291zM281 0q-78 -76 -79 -177q0 -86 56 -135.5t172 -49.5q137 0 214 57t77 148q0 78 -52 117.5t-143 39.5h-245zM258 667q0 -114 48 -178t144 -64q91 0 136.5 58 t45.5 177q0 116 -46.5 170.5t-143.5 54.5q-91 0 -137.5 -53.5t-46.5 -164.5z" />
<glyph unicode="h" horiz-adv-x="1061" d="M177 1391h-126v126h278v-647h2q137 142 311 141q126 0 184.5 -72t58.5 -203v-610h126v-126h-379v126h101v590q0 101 -35.5 135t-98.5 34q-147 0 -270 -144v-615h101v-126h-379v126h126v1265z" />
<glyph unicode="i" horiz-adv-x="530" d="M76 126h126v734h-126v126h278v-860h126v-126h-404v126zM159 1254q0 53 29 82t80 29q48 0 78.5 -29t30.5 -77q0 -51 -30.5 -80t-81.5 -29q-48 0 -77 29t-29 75z" />
<glyph unicode="j" horiz-adv-x="455" d="M265 -377q-61 -83 -194 -83q-35 0 -71 5v126q20 -3 43 -2q78 0 106 40.5t28 143.5v1007h-126v126h278v-1110q-1 -172 -64 -253zM134 1254q0 53 29 82t80 29q48 0 78 -29t30 -77q0 -51 -30 -80t-81 -29q-48 0 -77 29t-29 75z" />
<glyph unicode="k" d="M76 126h126v1265h-126v126h278v-1391h101v-126h-379v126zM582 986h379v-126h-134l-288 -306l331 -428h116v-126h-392v126h94l2 5l-311 408l296 321h-93v126z" />
<glyph unicode="l" horiz-adv-x="530" d="M76 126h126v1265h-126v126h278v-1391h126v-126h-404v126z" />
<glyph unicode="m" horiz-adv-x="1592" d="M76 126h126v734h-126v126h268l7 -131h3q134 157 306 156q182 0 220 -159h5q137 159 313 159q126 0 184.5 -72t58.5 -203v-610h127v-126h-380v126h101v590q0 101 -35 135t-99 34q-137 0 -257 -142v-617h101v-126h-354v126h101v590q0 101 -34 135t-95 34q-144 0 -263 -157 v-602h101v-126h-379v126z" />
<glyph unicode="n" horiz-adv-x="1061" d="M76 126h126v734h-126v126h268l7 -131h3q137 157 313 156q126 0 184.5 -72t58.5 -203v-610h127v-126h-380v126h102v590q0 101 -35.5 135t-98.5 34q-147 0 -271 -157v-602h101v-126h-379v126z" />
<glyph unicode="o" d="M88 488q0 240 118 381.5t297 141.5q180 0 287.5 -131.5t107.5 -368.5q0 -243 -114 -389.5t-299 -146.5q-182 0 -289.5 140t-107.5 373zM248 511q0 -200 64.5 -305t185.5 -105q114 0 177 97.5t63 297.5q0 389 -247 389q-119 0 -181 -89.5t-62 -284.5z" />
<glyph unicode="p" horiz-adv-x="1061" d="M334 986l7 -81h5q114 106 256 106q162 0 260.5 -132.5t98.5 -350.5q0 -248 -120 -400.5t-305 -152.5q-96 0 -190 45l-5 -2v-347h152v-126h-430v126h127v1189h-127v126h271zM341 139q76 -38 177 -38q134 0 209 98.5t75 303.5q0 197 -66 289.5t-177 92.5q-121 0 -218 -109 v-637z" />
<glyph unicode="q" d="M1011 -329v-126h-429v126h151v410l-5 2q-104 -109 -255 -108q-167 0 -269.5 139t-102.5 359q0 240 121.5 389t346.5 149q137 0 316 -53v-1287h126zM733 862q-96 23 -179 23q-147 0 -220.5 -93.5t-73.5 -298.5t69.5 -298.5t183.5 -93.5q126 0 220 96v665z" />
<glyph unicode="r" horiz-adv-x="682" d="M76 126h126v734h-126v126h270l8 -142h5q48 81 106 119t139 38q30 0 53 -5v-159q-38 8 -78 7q-73 0 -127.5 -34t-97.5 -110v-574h152v-126h-430v126z" />
<glyph unicode="s" horiz-adv-x="834" d="M389 -25q-157 0 -288 60v218h132v-132q76 -23 166 -22q114 0 161 39t47 110q0 66 -55.5 105t-174.5 82q-167 61 -228 130.5t-61 162.5q0 124 99 203.5t253 79.5q142 0 268 -60v-218h-132v134q-58 23 -144 23q-96 0 -144 -39t-48 -103q0 -63 52 -99.5t163 -77.5 q159 -56 231.5 -124t72.5 -182q0 -131 -101.5 -210.5t-268.5 -79.5z" />
<glyph unicode="t" horiz-adv-x="606" d="M412 -25q-109 0 -172 56.5t-63 168.5v660h-126v126h126v228l152 27v-255h227v-126h-227v-635q0 -73 29 -98.5t77 -25.5q61 0 121 30v-123q-68 -33 -144 -33z" />
<glyph unicode="u" horiz-adv-x="1061" d="M733 860h-126v126h278v-860h126v-126h-265l-8 109h-5q-111 -134 -280 -134q-134 0 -205 70.5t-71 204.5v610h-126v126h278v-710q0 -101 44 -138t120 -37q147 0 240 119v640z" />
<glyph unicode="v" d="M551 -13h-144l-293 873h-114v126h379v-126h-111l220 -678h5l228 678h-114v126h379v-126h-126z" />
<glyph unicode="w" horiz-adv-x="1517" d="M1095 -13h-144l-200 584h-5l-207 -584h-145l-280 873h-114v126h379v-126h-111l207 -678h5l208 566l-38 112h-119v126h405v-126h-137l233 -678h5l215 678h-114v126h379v-126h-126z" />
<glyph unicode="x" horiz-adv-x="910" d="M642 855v5h-86v126h342v-126h-119l-251 -347l263 -387h119v-126h-379v126h88v5l-182 268l-187 -268v-5h104v-126h-354v126h114l263 370l-248 364h-116v126h366v-126h-81v-5l170 -248z" />
<glyph unicode="y" d="M860 860l-327 -923q-30 -88 -64 -161.5t-78.5 -128t-105 -82.5t-143.5 -28q-46 0 -91 8v139q48 -8 93 -8q40 0 74.5 9t65 35.5t63 88.5t73.5 178h-13l-293 873h-114v126h379v-126h-111l220 -678h5l230 678h-116v126h379v-126h-126z" />
<glyph unicode="z" horiz-adv-x="910" d="M76 109l546 756h-415v-157h-131v278h733v-109l-544 -756h438v157h131v-278h-758v109z" />
<glyph unicode="{" horiz-adv-x="682" d="M202 604q91 -25 134 -88t43 -172v-400q0 -71 33 -96t81 -25h89v-126h-89q-126 0 -189.5 60.5t-63.5 194.5v394q0 109 -45.5 154.5t-131.5 45.5v121q86 0 131.5 44.5t45.5 150.5v400q0 134 67 194.5t191 60.5h84v-126h-94q-46 0 -77.5 -24t-31.5 -98v-399 q0 -111 -43 -174.5t-134 -86.5v-5z" />
<glyph unicode="|" horiz-adv-x="606" d="M240 1542h127v-2022h-127v2022z" />
<glyph unicode="}" horiz-adv-x="682" d="M480 609q-91 23 -134 86.5t-43 174.5v399q0 73 -31.5 97.5t-76.5 24.5h-94v126h84q124 0 190.5 -60.5t66.5 -194.5v-400q0 -106 45.5 -150.5t131.5 -44.5v-121q-86 0 -131.5 -45.5t-45.5 -154.5v-394q0 -134 -63 -194.5t-189 -60.5h-89v126h89q48 0 80.5 25.5t32.5 95.5 v400q0 109 43 172t134 88v5z" />
<glyph unicode="~" horiz-adv-x="1061" d="M76 544q129 91 263 91q71 0 121.5 -19t93.5 -40q40 -20 79.5 -34t87.5 -14q134 0 265 102v-134q-134 -91 -268 -91q-68 0 -117.5 18.5t-92.5 39.5q-40 20 -80.5 35t-91.5 15q-126 0 -260 -103v134z" />
<glyph unicode="&#xa1;" horiz-adv-x="606" d="M374 -379h-187l41 986h103zM152 877q0 61 34 97.5t92 36.5t92.5 -36.5t34.5 -87.5q0 -63 -35.5 -98.5t-96.5 -35.5q-56 0 -88.5 35.5t-32.5 88.5z" />
<glyph unicode="&#xa2;" horiz-adv-x="910" d="M455 -177v177q-167 20 -260.5 141.5t-93.5 343.5q0 230 97.5 354t256.5 145v179h116v-174q76 -5 142 -21.5t121 -42.5v-225h-126v142q-30 10 -64.5 16.5t-72.5 8.5v-746q119 8 263 89v-134q-124 -71 -263 -79v-174h-116zM455 862q-104 -23 -150.5 -106t-46.5 -253 q0 -174 49.5 -262.5t147.5 -111.5v733z" />
<glyph unicode="&#xa3;" d="M101 708h147q-46 197 -46 288q0 172 106.5 270.5t283.5 98.5q157 0 293 -70v-253h-132v167q-78 30 -169 30q-111 0 -170.5 -59.5t-59.5 -170.5q0 -86 48 -301h331v-114h-311q8 -53 8 -93q0 -228 -159 -370v-5h508v177h131v-303h-809v109q177 137 177 384q0 48 -7 101 h-170v114z" />
<glyph unicode="&#xa4;" horiz-adv-x="1137" d="M142 25l-112 109l195 190q-73 111 -73 242q0 142 73 246l-195 189l107 106l184 -197q111 76 248 76t243 -71l189 197l106 -111l-197 -187q76 -106 76 -248q0 -131 -76 -245l195 -190l-106 -108l-190 197q-104 -68 -240 -68q-137 0 -240 68zM291 566q0 -137 75.5 -212.5 t199.5 -75.5q129 0 205 76t76 212q0 137 -76 215.5t-205 78.5q-124 0 -199.5 -78.5t-75.5 -215.5z" />
<glyph unicode="&#xa5;" horiz-adv-x="1061" d="M549 721l260 518h-126v126h379v-126h-116l-268 -518h232v-114h-303v-152h303v-114h-303v-215h152v-126h-456v126h152v215h-301v114h301v152h-301v114h230l-278 518h-106v126h377v-126h-109l276 -518h5z" />
<glyph unicode="&#xa6;" horiz-adv-x="606" d="M228 531h151v-556h-151v556zM228 1391h151v-557h-151v557z" />
<glyph unicode="&#xa7;" horiz-adv-x="1061" d="M177 1072q0 144 105 231.5t287 87.5q152 0 291 -64v-240h-132v152q-88 25 -172 25q-101 0 -164 -40.5t-63 -121.5q0 -46 20 -81t54 -61.5t78.5 -48t94.5 -44.5q58 -25 116.5 -55.5t108 -72t79.5 -98.5t30 -140q0 -212 -210 -304v-5q185 -96 185 -278q0 -144 -105 -231.5 t-287 -87.5q-152 0 -291 64v240h132v-152q86 -25 172 -25q101 0 164 40.5t63 121.5q0 46 -21.5 81t-57 63t-79.5 49.5t-90 41.5q-66 28 -126.5 59.5t-106 73t-73 98.5t-27.5 133q0 210 212 306v5q-187 91 -187 278zM759 470q0 53 -21.5 91t-57 67t-82.5 52t-133 61 q-162 -73 -162 -230q0 -51 20.5 -89t57 -65.5t83.5 -50.5t133 -61q162 71 162 225z" />
<glyph unicode="&#xa8;" horiz-adv-x="758" d="M88 1254q0 51 30.5 81t75.5 30q51 0 80 -30t29 -78t-29 -77.5t-82 -29.5q-46 0 -75 29t-29 75zM455 1254q0 51 30 81t76 30q51 0 80 -30t29 -78t-29 -77.5t-83 -29.5q-46 0 -74.5 29t-28.5 75z" />
<glyph unicode="&#xa9;" horiz-adv-x="1592" d="M1087 341q-134 -81 -288 -81q-195 0 -307.5 115.5t-112.5 304.5q0 192 112.5 308.5t307.5 116.5q147 0 288 -68v-235h-126v149q-66 35 -165 35q-134 0 -199.5 -77t-65.5 -216q0 -144 71 -229t207 -85q129 0 278 86v-124zM101 683q0 319 192 513.5t501 194.5 q308 0 503 -196t195 -512q0 -319 -195 -513.5t-503 -194.5t-500.5 194.5t-192.5 513.5zM228 683q0 -276 150 -435.5t416 -159.5q265 0 418 159.5t153 435.5q0 281 -153 437.5t-418 156.5t-415.5 -156.5t-150.5 -437.5z" />
<glyph unicode="&#xaa;" horiz-adv-x="834" d="M126 1231q129 58 273 58q134 0 202.5 -63t68.5 -187v-364h114v-119h-238l-7 89h-6q-99 -114 -232 -114q-101 0 -163 57t-62 150q0 235 417 235h38v38q0 159 -149 160q-131 0 -256 -61v121zM491 872q-131 0 -202.5 -27.5t-71.5 -98.5q0 -46 32 -71t87 -25q119 0 195 101 v121h-40z" />
<glyph unicode="&#xab;" horiz-adv-x="834" d="M76 493l215 341h164l-215 -341l215 -341h-164zM379 493l215 341h164l-215 -341l215 -341h-164z" />
<glyph unicode="&#xac;" d="M895 126h-136v337h-683v136h819v-473z" />
<glyph unicode="&#xad;" horiz-adv-x="530" d="M76 582h379v-127h-379v127z" />
<glyph unicode="&#xae;" horiz-adv-x="1592" d="M670 379h104v-116h-344v116h101v607h-101v116h349q172 0 252.5 -59t80.5 -168q0 -91 -48 -154.5t-169 -85.5v-5q30 -8 64.5 -32t67.5 -77l83 -142h104v-116h-208q-30 61 -65 121l-61 107q-40 73 -74.5 95.5t-89.5 22.5h-46v-230zM748 721q114 0 163.5 32.5t49.5 108.5 q0 63 -45.5 93.5t-149.5 30.5h-96v-265h78zM101 683q0 319 192 513.5t501 194.5q308 0 503 -196t195 -512q0 -319 -195 -513.5t-503 -194.5t-500.5 194.5t-192.5 513.5zM228 683q0 -276 150 -435.5t416 -159.5q265 0 418 159.5t153 435.5q0 281 -153 437.5t-418 156.5 t-415.5 -156.5t-150.5 -437.5z" />
<glyph unicode="&#xaf;" horiz-adv-x="682" d="M75 1289h531v-121h-531v121z" />
<glyph unicode="&#xb0;" horiz-adv-x="758" d="M76 1075q0 137 87 226.5t229 89.5q139 0 227.5 -90t88.5 -226q0 -137 -88.5 -226.5t-227.5 -89.5q-142 0 -229 89.5t-87 226.5zM212 1075q0 -83 51 -136.5t129 -53.5q83 0 132.5 53t49.5 137q0 83 -49.5 135t-132.5 52q-78 0 -129 -52t-51 -135z" />
<glyph unicode="&#xb1;" d="M561 202h-136v261h-349v136h349v261h136v-261h349v-136h-349v-261zM76 8v136h834v-136h-834z" />
<glyph unicode="&#xb2;" horiz-adv-x="834" d="M733 784v-228h-632v111q195 137 330 266t135 233q0 53 -39 80.5t-117 27.5q-86 0 -165 -35v-152h-119v223q144 81 304 81q139 0 208.5 -56t69.5 -157q0 -137 -122.5 -262t-277.5 -238v-5h306v111h119z" />
<glyph unicode="&#xb3;" horiz-adv-x="834" d="M101 695q121 -48 256 -48q101 0 168 31.5t67 105.5q0 61 -58.5 93.5t-197.5 32.5h-58v111h41q124 0 180.5 35.5t56.5 101.5q0 51 -40.5 83.5t-133.5 32.5q-91 0 -162 -25v-111h-119v179q139 73 291 74q134 0 217.5 -59.5t83.5 -158.5q0 -131 -142 -184v-5 q182 -40 182 -200q0 -121 -105 -187t-264 -66q-157 0 -263 40v124z" />
<glyph unicode="&#xb4;" horiz-adv-x="455" d="M217 1391h177l-202 -304h-116z" />
<glyph unicode="&#xb5;" d="M126 -455v1441h152v-738q53 -147 190 -147q142 0 215 149v736h151v-860h127v-126h-261l-7 114h-5q-83 -139 -213 -139q-134 0 -192 113h-5v-543h-152z" />
<glyph unicode="&#xb6;" horiz-adv-x="1137" d="M455 -379v986q-205 5 -317.5 106t-112.5 288q0 174 107.5 269t332.5 95h572v-126h-127v-1618h-151v1618h-152v-1618h-152z" />
<glyph unicode="&#xb7;" horiz-adv-x="455" d="M101 488q0 61 34 97.5t93 36.5q58 0 92 -36.5t34 -87.5q0 -63 -35.5 -98.5t-96.5 -35.5q-56 0 -88.5 35.5t-32.5 88.5z" />
<glyph unicode="&#xb8;" horiz-adv-x="530" d="M76 -341q48 -10 99 -10q48 0 76 18.5t28 64.5q0 81 -145 81l76 207h117l-48 -131q76 -18 107.5 -62t31.5 -100q0 -88 -66 -141.5t-172 -53.5q-51 0 -104 13v114z" />
<glyph unicode="&#xb9;" horiz-adv-x="606" d="M303 556v690h-151v119h290v-809h-139z" />
<glyph unicode="&#xba;" horiz-adv-x="834" d="M76 908q0 169 94.5 275t259.5 106q154 0 241.5 -101t87.5 -265q0 -174 -95 -283t-249 -109q-157 0 -248 104t-91 273zM220 925q0 -134 52 -204.5t150 -70.5q99 0 145.5 67t46.5 196q0 124 -46.5 191t-152.5 67q-94 0 -144.5 -60t-50.5 -186z" />
<glyph unicode="&#xbb;" horiz-adv-x="834" d="M455 493l-215 -341h-164l215 341l-215 341h164zM758 493l-215 -341h-164l215 341l-215 341h164z" />
<glyph unicode="&#xbc;" horiz-adv-x="1744" d="M303 556v690h-151v119h290v-809h-139zM1378 1391l-935 -1391h-152l936 1391h151zM1365 218h-430v101l448 531h134v-518h152v-114h-152v-190h-152v190zM1095 332h270v323h-5l-268 -318z" />
<glyph unicode="&#xbd;" horiz-adv-x="1820" d="M303 556v690h-151v119h290v-809h-139zM1378 1391l-935 -1391h-152l936 1391h151zM1719 256v-228h-632v111q195 137 330 266t135 233q0 53 -39 80.5t-117 27.5q-86 0 -165 -35v-152h-119v223q144 81 304 81q139 0 208.5 -56t69.5 -157q0 -137 -122.5 -262t-277.5 -238v-5 h306v111h119z" />
<glyph unicode="&#xbe;" horiz-adv-x="1896" d="M101 695q121 -48 256 -48q101 0 168 31.5t67 105.5q0 61 -58.5 93.5t-197.5 32.5h-58v111h41q124 0 180.5 35.5t56.5 101.5q0 51 -40.5 83.5t-133.5 32.5q-91 0 -162 -25v-111h-119v179q139 73 291 74q134 0 217.5 -59.5t83.5 -158.5q0 -131 -142 -184v-5 q182 -40 182 -200q0 -121 -105 -187t-264 -66q-157 0 -263 40v124zM1529 1391l-935 -1391h-152l936 1391h151zM1517 218h-430v101l448 531h134v-518h152v-114h-152v-190h-152v190zM1247 332h270v323h-5l-268 -318z" />
<glyph unicode="&#xbf;" horiz-adv-x="758" d="M607 -372q-99 -33 -205 -33q-154 0 -255 88.5t-101 240.5q0 111 45.5 187t128.5 142q83 68 125 122.5t42 130.5q0 46 -15 101h111q28 -76 28 -152q0 -86 -39.5 -150.5t-109.5 -119.5q-68 -56 -114 -109t-46 -147q0 -99 62 -149.5t163 -50.5q81 0 180 31v-132zM556 887 q0 -61 -34 -97.5t-92 -36.5t-92.5 37t-34.5 87q0 63 35.5 98.5t96.5 35.5q56 0 88.5 -35.5t32.5 -88.5z" />
<glyph unicode="&#xc0;" horiz-adv-x="1213" d="M405 126v-126h-405v126h126l407 1252h147l415 -1252h119v-126h-405v126h127l-124 380h-423l-118 -380h134zM594 1163l-167 -531h344l-172 531h-5zM670 1466h-111l-218 279h177z" />
<glyph unicode="&#xc1;" horiz-adv-x="1213" d="M405 126v-126h-405v126h126l407 1252h147l415 -1252h119v-126h-405v126h127l-124 380h-423l-118 -380h134zM594 1163l-167 -531h344l-172 531h-5zM695 1745h177l-217 -279h-111z" />
<glyph unicode="&#xc2;" horiz-adv-x="1213" d="M405 126v-126h-405v126h126l407 1252h147l415 -1252h119v-126h-405v126h127l-124 380h-423l-118 -380h134zM594 1163l-167 -531h344l-172 531h-5zM604 1628l-123 -162h-152l215 279h126l215 -279h-152l-124 162h-5z" />
<glyph unicode="&#xc3;" horiz-adv-x="1213" d="M405 126v-126h-405v126h126l407 1252h147l415 -1252h119v-126h-405v126h127l-124 380h-423l-118 -380h134zM594 1163l-167 -531h344l-172 531h-5zM341 1474v129q58 53 137 53q63 0 152 -48q66 -33 111 -33q76 0 126 58h5v-129q-58 -53 -136 -53q-63 0 -152 48 q-66 33 -111 33q-76 0 -126 -58h-6z" />
<glyph unicode="&#xc4;" horiz-adv-x="1213" d="M405 126v-126h-405v126h126l407 1252h147l415 -1252h119v-126h-405v126h127l-124 380h-423l-118 -380h134zM594 1163l-167 -531h344l-172 531h-5zM316 1568q0 51 29 79.5t75 28.5q51 0 78.5 -29t27.5 -77t-28 -76t-81 -28q-46 0 -73.5 28t-27.5 74zM688 1568 q0 51 29 79.5t75 28.5q51 0 78.5 -29t27.5 -77t-28 -76t-81 -28q-46 0 -73.5 28t-27.5 74z" />
<glyph unicode="&#xc5;" horiz-adv-x="1213" d="M405 126v-126h-405v126h126l407 1252h147l415 -1252h119v-126h-405v126h127l-124 380h-423l-118 -380h134zM594 1163l-167 -531h344l-172 531h-5zM425 1611q0 76 50.5 117.5t136.5 41.5t131.5 -42t45.5 -112q0 -71 -49.5 -116.5t-137.5 -45.5q-83 0 -130 44.5t-47 112.5z M524 1616q0 -46 21.5 -66t61.5 -20q38 0 60.5 22.5t22.5 63.5q0 38 -22.5 58t-60.5 20q-40 0 -61.5 -20t-21.5 -58z" />
<glyph unicode="&#xc6;" horiz-adv-x="1668" d="M1459 126v177h134v-303h-910v126h151v380h-392l-197 -380h109v-126h-379v126h116l650 1239h827v-303h-134v177h-448v-480h253v126h126v-405h-126v152h-253v-506h473zM511 632h323v607h-5z" />
<glyph unicode="&#xc7;" horiz-adv-x="1137" d="M1062 76q-187 -101 -379 -101q-271 0 -426.5 188t-155.5 520q0 329 159.5 518.5t424.5 189.5q185 0 377 -81v-299h-139v200q-101 40 -243 41q-202 0 -311 -138t-109 -421q0 -296 114 -437.5t316 -141.5q169 0 372 101v-139zM493 -341q48 -10 99 -10q48 0 76 18.5t28 64.5 q0 81 -145 81l76 207h117l-48 -131q76 -18 107.5 -62t31.5 -100q0 -88 -66 -141.5t-172 -53.5q-51 0 -104 13v114z" />
<glyph unicode="&#xc8;" horiz-adv-x="1061" d="M852 126v177h134v-303h-910v126h152v1113h-152v126h885v-303h-134v177h-448v-480h253v126h127v-405h-127v152h-253v-506h473zM632 1466h-111l-218 279h177z" />
<glyph unicode="&#xc9;" horiz-adv-x="1061" d="M852 126v177h134v-303h-910v126h152v1113h-152v126h885v-303h-134v177h-448v-480h253v126h127v-405h-127v152h-253v-506h473zM657 1745h177l-217 -279h-111z" />
<glyph unicode="&#xca;" horiz-adv-x="1061" d="M852 126v177h134v-303h-910v126h152v1113h-152v126h885v-303h-134v177h-448v-480h253v126h127v-405h-127v152h-253v-506h473zM566 1628l-123 -162h-152l215 279h126l215 -279h-152l-124 162h-5z" />
<glyph unicode="&#xcb;" horiz-adv-x="1061" d="M852 126v177h134v-303h-910v126h152v1113h-152v126h885v-303h-134v177h-448v-480h253v126h127v-405h-127v152h-253v-506h473zM278 1568q0 51 29 79.5t75 28.5q51 0 78.5 -29t27.5 -77t-28 -76t-81 -28q-46 0 -73.5 28t-27.5 74zM650 1568q0 51 29 79.5t75 28.5 q51 0 78.5 -29t27.5 -77t-28 -76t-81 -28q-46 0 -73.5 28t-27.5 74z" />
<glyph unicode="&#xcc;" horiz-adv-x="606" d="M76 126h152v1113h-152v126h455v-126h-152v-1113h152v-126h-455v126zM366 1466h-111l-218 279h177z" />
<glyph unicode="&#xcd;" horiz-adv-x="606" d="M76 126h152v1113h-152v126h455v-126h-152v-1113h152v-126h-455v126zM391 1745h177l-217 -279h-111z" />
<glyph unicode="&#xce;" horiz-adv-x="606" d="M76 126h152v1113h-152v126h455v-126h-152v-1113h152v-126h-455v126zM300 1628l-123 -162h-152l215 279h126l215 -279h-152l-124 162h-5z" />
<glyph unicode="&#xcf;" horiz-adv-x="606" d="M76 126h152v1113h-152v126h455v-126h-152v-1113h152v-126h-455v126zM12 1568q0 51 29 79.5t75 28.5q51 0 78.5 -29t27.5 -77t-28 -76t-81 -28q-46 0 -73.5 28t-27.5 74zM384 1568q0 51 29 79.5t75 28.5q51 0 78.5 -29t27.5 -77t-28 -76t-81 -28q-46 0 -73.5 28t-27.5 74z " />
<glyph unicode="&#xd0;" horiz-adv-x="1289" d="M76 759h152v480h-152v126h452q329 0 486 -163t157 -484q0 -354 -178.5 -536t-509.5 -182h-407v126h152v506h-152v127zM379 126h122q245 0 377.5 139.5t132.5 437.5q0 278 -121 407t-389 129h-122v-480h253v-127h-253v-506z" />
<glyph unicode="&#xd1;" horiz-adv-x="1365" d="M996 1239h-152v126h445v-126h-151v-1239h-147l-617 1064h-5v-938h152v-126h-445v126h152v1113h-152v126h303l612 -1051h5v925zM417 1474v129q58 53 137 53q63 0 152 -48q66 -33 111 -33q76 0 126 58h5v-129q-58 -53 -136 -53q-63 0 -152 48q-66 33 -111 33 q-76 0 -126 -58h-6z" />
<glyph unicode="&#xd2;" horiz-adv-x="1289" d="M119 685q0 329 145.5 517.5t392.5 188.5q243 0 378.5 -182t135.5 -506q0 -344 -145.5 -536t-388.5 -192q-235 0 -376.5 188t-141.5 522zM278 693q0 -283 97.5 -431t269.5 -148t269 148t97 433q0 276 -92 416.5t-269 140.5q-180 0 -276 -136.5t-96 -422.5zM708 1466h-111 l-218 279h177z" />
<glyph unicode="&#xd3;" horiz-adv-x="1289" d="M119 685q0 329 145.5 517.5t392.5 188.5q243 0 378.5 -182t135.5 -506q0 -344 -145.5 -536t-388.5 -192q-235 0 -376.5 188t-141.5 522zM278 693q0 -283 97.5 -431t269.5 -148t269 148t97 433q0 276 -92 416.5t-269 140.5q-180 0 -276 -136.5t-96 -422.5zM733 1745h177 l-217 -279h-111z" />
<glyph unicode="&#xd4;" horiz-adv-x="1289" d="M119 685q0 329 145.5 517.5t392.5 188.5q243 0 378.5 -182t135.5 -506q0 -344 -145.5 -536t-388.5 -192q-235 0 -376.5 188t-141.5 522zM278 693q0 -283 97.5 -431t269.5 -148t269 148t97 433q0 276 -92 416.5t-269 140.5q-180 0 -276 -136.5t-96 -422.5zM642 1628 l-123 -162h-152l215 279h126l215 -279h-152l-124 162h-5z" />
<glyph unicode="&#xd5;" horiz-adv-x="1289" d="M119 685q0 329 145.5 517.5t392.5 188.5q243 0 378.5 -182t135.5 -506q0 -344 -145.5 -536t-388.5 -192q-235 0 -376.5 188t-141.5 522zM278 693q0 -283 97.5 -431t269.5 -148t269 148t97 433q0 276 -92 416.5t-269 140.5q-180 0 -276 -136.5t-96 -422.5zM379 1474v129 q58 53 137 53q63 0 152 -48q66 -33 111 -33q76 0 126 58h5v-129q-58 -53 -136 -53q-63 0 -152 48q-66 33 -111 33q-76 0 -126 -58h-6z" />
<glyph unicode="&#xd6;" horiz-adv-x="1289" d="M119 685q0 329 145.5 517.5t392.5 188.5q243 0 378.5 -182t135.5 -506q0 -344 -145.5 -536t-388.5 -192q-235 0 -376.5 188t-141.5 522zM278 693q0 -283 97.5 -431t269.5 -148t269 148t97 433q0 276 -92 416.5t-269 140.5q-180 0 -276 -136.5t-96 -422.5zM354 1568 q0 51 29 79.5t75 28.5q51 0 78.5 -29t27.5 -77t-28 -76t-81 -28q-46 0 -73.5 28t-27.5 74zM726 1568q0 51 29 79.5t75 28.5q51 0 78.5 -29t27.5 -77t-28 -76t-81 -28q-46 0 -73.5 28t-27.5 74z" />
<glyph unicode="&#xd7;" horiz-adv-x="998" d="M898 222l-96 -96l-309 309l-308 -309l-97 96l309 309l-309 308l97 97l308 -309l309 309l96 -97l-309 -308z" />
<glyph unicode="&#xd8;" horiz-adv-x="1289" d="M119 685q0 329 145.5 517.5t392.5 188.5q169 0 291 -91l94 154l96 -58l-109 -180q142 -182 142 -513q0 -344 -145.5 -536t-388.5 -192q-174 0 -291 101l-98 -164l-96 58l113 189q-146 185 -146 526zM278 693q0 -248 73 -390l519 868q-86 81 -220 81q-180 0 -276 -136.5 t-96 -422.5zM645 114q172 0 269 148t97 433q0 238 -68 375l-521 -868q92 -88 223 -88z" />
<glyph unicode="&#xd9;" horiz-adv-x="1365" d="M354 437q0 -159 88.5 -241t237.5 -82q162 0 251.5 86t89.5 245v794h-154v126h448v-126h-152v-786q0 -212 -130 -345t-355 -133q-217 0 -346.5 125t-129.5 335v804h-151v126h455v-126h-152v-802zM746 1466h-111l-218 279h177z" />
<glyph unicode="&#xda;" horiz-adv-x="1365" d="M354 437q0 -159 88.5 -241t237.5 -82q162 0 251.5 86t89.5 245v794h-154v126h448v-126h-152v-786q0 -212 -130 -345t-355 -133q-217 0 -346.5 125t-129.5 335v804h-151v126h455v-126h-152v-802zM771 1745h177l-217 -279h-111z" />
<glyph unicode="&#xdb;" horiz-adv-x="1365" d="M354 437q0 -159 88.5 -241t237.5 -82q162 0 251.5 86t89.5 245v794h-154v126h448v-126h-152v-786q0 -212 -130 -345t-355 -133q-217 0 -346.5 125t-129.5 335v804h-151v126h455v-126h-152v-802zM680 1628l-123 -162h-152l215 279h126l215 -279h-152l-124 162h-5z" />
<glyph unicode="&#xdc;" horiz-adv-x="1365" d="M354 437q0 -159 88.5 -241t237.5 -82q162 0 251.5 86t89.5 245v794h-154v126h448v-126h-152v-786q0 -212 -130 -345t-355 -133q-217 0 -346.5 125t-129.5 335v804h-151v126h455v-126h-152v-802zM392 1568q0 51 29 79.5t75 28.5q51 0 78.5 -29t27.5 -77t-28 -76t-81 -28 q-46 0 -73.5 28t-27.5 74zM764 1568q0 51 29 79.5t75 28.5q51 0 78.5 -29t27.5 -77t-28 -76t-81 -28q-46 0 -73.5 28t-27.5 74z" />
<glyph unicode="&#xdd;" horiz-adv-x="1213" d="M531 607l-415 632h-116v126h405v-126h-117l329 -501l319 501h-127v126h405v-126h-119l-412 -632v-481h177v-126h-506v126h177v481zM695 1745h177l-217 -279h-111z" />
<glyph unicode="&#xde;" horiz-adv-x="1061" d="M76 126h152v1113h-152v126h455v-126h-152v-127h154q222 0 328.5 -97t106.5 -282q0 -210 -120 -320t-350 -110h-119v-177h152v-126h-455v126zM506 430q147 0 225 67t78 219q0 154 -71 212t-220 58h-139v-556h127z" />
<glyph unicode="&#xdf;" horiz-adv-x="1137" d="M354 0h-278v126h126v734h-126v126h126v164q0 180 116.5 280t300.5 100q167 0 267 -82.5t100 -221.5q0 -68 -17.5 -115t-45.5 -81t-62 -58t-67 -44q-73 -43 -105 -76t-32 -83q0 -58 51 -100t139 -90q40 -23 77 -48t68.5 -59.5t50.5 -81t19 -107.5q0 -144 -95 -226 t-251 -82q-94 0 -185 25v134q94 -33 185 -33q101 0 147.5 39.5t46.5 117.5q0 66 -40.5 107.5t-123.5 87.5q-46 25 -87.5 52.5t-73 60.5t-52 77.5t-20.5 99.5q0 58 15.5 96t38 67.5t55.5 56t68 48.5q35 23 62 42t46 43t29 53t10 70q0 94 -57 141.5t-173 47.5 q-119 0 -186 -55.5t-67 -179.5v-1173z" />
<glyph unicode="&#xe0;" d="M152 913q174 99 356 98q157 0 241.5 -72t84.5 -229v-584h127v-126h-263l-8 114l-5 2q-121 -142 -298 -141q-131 0 -208.5 77t-77.5 196q0 159 138 237.5t401 78.5h43v149q0 94 -44.5 133t-147.5 39q-124 0 -208 -41v-136h-131v205zM622 455q-174 0 -268 -44t-94 -156 q0 -81 45.5 -117.5t116.5 -36.5q152 0 261 124v230h-61zM571 1087h-116l-202 304h177z" />
<glyph unicode="&#xe1;" d="M152 913q174 99 356 98q157 0 241.5 -72t84.5 -229v-584h127v-126h-263l-8 114l-5 2q-121 -142 -298 -141q-131 0 -208.5 77t-77.5 196q0 159 138 237.5t401 78.5h43v149q0 94 -44.5 133t-147.5 39q-124 0 -208 -41v-136h-131v205zM622 455q-174 0 -268 -44t-94 -156 q0 -81 45.5 -117.5t116.5 -36.5q152 0 261 124v230h-61zM556 1391h177l-202 -304h-116z" />
<glyph unicode="&#xe2;" d="M152 913q174 99 356 98q157 0 241.5 -72t84.5 -229v-584h127v-126h-263l-8 114l-5 2q-121 -142 -298 -141q-131 0 -208.5 77t-77.5 196q0 159 138 237.5t401 78.5h43v149q0 94 -44.5 133t-147.5 39q-124 0 -208 -41v-136h-131v205zM622 455q-174 0 -268 -44t-94 -156 q0 -81 45.5 -117.5t116.5 -36.5q152 0 261 124v230h-61zM490 1277l-144 -190h-151l237 304h122l237 -304h-151l-145 190h-5z" />
<glyph unicode="&#xe3;" d="M152 913q174 99 356 98q157 0 241.5 -72t84.5 -229v-584h127v-126h-263l-8 114l-5 2q-121 -142 -298 -141q-131 0 -208.5 77t-77.5 196q0 159 138 237.5t401 78.5h43v149q0 94 -44.5 133t-147.5 39q-124 0 -208 -41v-136h-131v205zM622 455q-174 0 -268 -44t-94 -156 q0 -81 45.5 -117.5t116.5 -36.5q152 0 261 124v230h-61zM202 1171v129q78 56 162 55q66 0 154 -45q63 -30 109 -31q81 0 152 61h5v-129q-78 -56 -162 -56q-66 0 -154 46q-63 30 -109 30q-81 0 -152 -60h-5z" />
<glyph unicode="&#xe4;" d="M152 913q174 99 356 98q157 0 241.5 -72t84.5 -229v-584h127v-126h-263l-8 114l-5 2q-121 -142 -298 -141q-131 0 -208.5 77t-77.5 196q0 159 138 237.5t401 78.5h43v149q0 94 -44.5 133t-147.5 39q-124 0 -208 -41v-136h-131v205zM622 455q-174 0 -268 -44t-94 -156 q0 -81 45.5 -117.5t116.5 -36.5q152 0 261 124v230h-61zM202 1254q0 51 30.5 81t75.5 30q51 0 80 -30t29 -78t-29 -77.5t-82 -29.5q-46 0 -75 29t-29 75zM569 1254q0 51 30 81t76 30q51 0 80 -30t29 -78t-29 -77.5t-83 -29.5q-46 0 -74.5 29t-28.5 75z" />
<glyph unicode="&#xe5;" d="M152 913q174 99 356 98q157 0 241.5 -72t84.5 -229v-584h127v-126h-263l-8 114l-5 2q-121 -142 -298 -141q-131 0 -208.5 77t-77.5 196q0 159 138 237.5t401 78.5h43v149q0 94 -44.5 133t-147.5 39q-124 0 -208 -41v-136h-131v205zM622 455q-174 0 -268 -44t-94 -156 q0 -81 45.5 -117.5t116.5 -36.5q152 0 261 124v230h-61zM303 1252q0 76 53.5 120t138.5 44q91 0 139.5 -44.5t48.5 -117.5q0 -71 -52 -119t-143 -48q-86 0 -135.5 47t-49.5 118zM407 1254q0 -46 23 -67t63 -21q38 0 62 24t24 64t-24 62t-62 22q-40 0 -63 -22t-23 -62z" />
<glyph unicode="&#xe6;" horiz-adv-x="1441" d="M1340 190v-137q-121 -78 -283 -78q-217 0 -326 174h-5q-144 -174 -349 -174q-126 0 -201 75.5t-75 197.5q0 159 131.5 237.5t384.5 78.5h40v149q0 94 -41.5 133t-137.5 39q-116 0 -195 -41v-136h-131v205q167 99 344 98q210 0 273 -134h5q109 134 278 134q139 0 226 -116 t87 -331v-79h-556q5 -177 66 -275.5t195 -103.5q146 1 270 84zM599 455q-159 0 -246.5 -44t-87.5 -156q0 -78 40.5 -116t99.5 -38q157 -3 280 152q-28 83 -33 202h-53zM1214 607q0 144 -49.5 211t-137.5 67q-86 0 -144.5 -69.5t-70.5 -208.5h402z" />
<glyph unicode="&#xe7;" horiz-adv-x="910" d="M809 38q-121 -63 -265 -63q-205 0 -324 131.5t-119 376.5q0 248 125 388t325 140q139 0 258 -58v-245h-134v154q-56 23 -136 23q-142 0 -210.5 -90t-68.5 -284q0 -207 73.5 -306t212.5 -99q137 0 263 68v-136zM341 -341q48 -10 99 -10q48 0 76 18.5t28 64.5q0 81 -145 81 l76 207h117l-48 -131q76 -18 107.5 -62t31.5 -100q0 -88 -66 -141.5t-172 -53.5q-51 0 -104 13v114z" />
<glyph unicode="&#xe8;" horiz-adv-x="910" d="M809 190v-137q-126 -78 -296 -78q-200 0 -312.5 134t-112.5 374q0 248 119 388t299 140q147 0 237.5 -116t90.5 -331v-79h-589q5 -177 69.5 -275.5t206.5 -103.5q157 1 288 84zM683 607q0 144 -53.5 211t-149.5 67q-94 0 -157 -69.5t-75 -208.5h435zM571 1087h-116 l-202 304h177z" />
<glyph unicode="&#xe9;" horiz-adv-x="910" d="M809 190v-137q-126 -78 -296 -78q-200 0 -312.5 134t-112.5 374q0 248 119 388t299 140q147 0 237.5 -116t90.5 -331v-79h-589q5 -177 69.5 -275.5t206.5 -103.5q157 1 288 84zM683 607q0 144 -53.5 211t-149.5 67q-94 0 -157 -69.5t-75 -208.5h435zM556 1391h177 l-202 -304h-116z" />
<glyph unicode="&#xea;" horiz-adv-x="910" d="M809 190v-137q-126 -78 -296 -78q-200 0 -312.5 134t-112.5 374q0 248 119 388t299 140q147 0 237.5 -116t90.5 -331v-79h-589q5 -177 69.5 -275.5t206.5 -103.5q157 1 288 84zM683 607q0 144 -53.5 211t-149.5 67q-94 0 -157 -69.5t-75 -208.5h435zM490 1277l-144 -190 h-151l237 304h122l237 -304h-151l-145 190h-5z" />
<glyph unicode="&#xeb;" horiz-adv-x="910" d="M809 190v-137q-126 -78 -296 -78q-200 0 -312.5 134t-112.5 374q0 248 119 388t299 140q147 0 237.5 -116t90.5 -331v-79h-589q5 -177 69.5 -275.5t206.5 -103.5q157 1 288 84zM683 607q0 144 -53.5 211t-149.5 67q-94 0 -157 -69.5t-75 -208.5h435zM202 1254 q0 51 30.5 81t75.5 30q51 0 80 -30t29 -78t-29 -77.5t-82 -29.5q-46 0 -75 29t-29 75zM569 1254q0 51 30 81t76 30q51 0 80 -30t29 -78t-29 -77.5t-83 -29.5q-46 0 -74.5 29t-28.5 75z" />
<glyph unicode="&#xec;" horiz-adv-x="530" d="M76 126h126v734h-126v126h278v-860h126v-126h-404v126zM344 1087h-116l-202 304h177z" />
<glyph unicode="&#xed;" horiz-adv-x="530" d="M76 126h126v734h-126v126h278v-860h126v-126h-404v126zM329 1391h177l-202 -304h-116z" />
<glyph unicode="&#xee;" horiz-adv-x="530" d="M76 126h126v734h-126v126h278v-860h126v-126h-404v126zM263 1277l-144 -190h-151l237 304h122l237 -304h-151l-145 190h-5z" />
<glyph unicode="&#xef;" horiz-adv-x="530" d="M76 126h126v734h-126v126h278v-860h126v-126h-404v126zM-25 1254q0 51 30.5 81t75.5 30q51 0 80 -30t29 -78t-29 -77.5t-82 -29.5q-46 0 -75 29t-29 75zM342 1254q0 51 30 81t76 30q51 0 80 -30t29 -78t-29 -77.5t-83 -29.5q-46 0 -74.5 29t-28.5 75z" />
<glyph unicode="&#xf0;" horiz-adv-x="1061" d="M319 1193l169 127q-104 61 -266 71v126q215 -8 372 -116l170 126l70 -91l-149 -111q248 -255 248 -713q0 -303 -115 -470t-315 -167q-190 0 -302.5 140t-112.5 368t119 365.5t314 137.5q111 0 212 -53l5 3q-43 185 -156 310l-193 -144zM526 860q-142 0 -210 -86t-68 -273 q0 -192 67 -296t198 -104q134 0 197.5 121.5t63.5 376.5q0 109 -13 203q-114 58 -235 58z" />
<glyph unicode="&#xf1;" horiz-adv-x="1061" d="M76 126h126v734h-126v126h268l7 -131h3q137 157 313 156q126 0 184.5 -72t58.5 -203v-610h127v-126h-380v126h102v590q0 101 -35.5 135t-98.5 34q-147 0 -271 -157v-602h101v-126h-379v126zM278 1171v129q78 56 162 55q66 0 154 -45q63 -30 109 -31q81 0 152 61h5v-129 q-78 -56 -162 -56q-66 0 -154 46q-63 30 -109 30q-81 0 -152 -60h-5z" />
<glyph unicode="&#xf2;" d="M88 488q0 240 118 381.5t297 141.5q180 0 287.5 -131.5t107.5 -368.5q0 -243 -114 -389.5t-299 -146.5q-182 0 -289.5 140t-107.5 373zM248 511q0 -200 64.5 -305t185.5 -105q114 0 177 97.5t63 297.5q0 389 -247 389q-119 0 -181 -89.5t-62 -284.5zM571 1087h-116 l-202 304h177z" />
<glyph unicode="&#xf3;" d="M88 488q0 240 118 381.5t297 141.5q180 0 287.5 -131.5t107.5 -368.5q0 -243 -114 -389.5t-299 -146.5q-182 0 -289.5 140t-107.5 373zM248 511q0 -200 64.5 -305t185.5 -105q114 0 177 97.5t63 297.5q0 389 -247 389q-119 0 -181 -89.5t-62 -284.5zM556 1391h177 l-202 -304h-116z" />
<glyph unicode="&#xf4;" d="M88 488q0 240 118 381.5t297 141.5q180 0 287.5 -131.5t107.5 -368.5q0 -243 -114 -389.5t-299 -146.5q-182 0 -289.5 140t-107.5 373zM248 511q0 -200 64.5 -305t185.5 -105q114 0 177 97.5t63 297.5q0 389 -247 389q-119 0 -181 -89.5t-62 -284.5zM490 1277l-144 -190 h-151l237 304h122l237 -304h-151l-145 190h-5z" />
<glyph unicode="&#xf5;" d="M88 488q0 240 118 381.5t297 141.5q180 0 287.5 -131.5t107.5 -368.5q0 -243 -114 -389.5t-299 -146.5q-182 0 -289.5 140t-107.5 373zM248 511q0 -200 64.5 -305t185.5 -105q114 0 177 97.5t63 297.5q0 389 -247 389q-119 0 -181 -89.5t-62 -284.5zM202 1171v129 q78 56 162 55q66 0 154 -45q63 -30 109 -31q81 0 152 61h5v-129q-78 -56 -162 -56q-66 0 -154 46q-63 30 -109 30q-81 0 -152 -60h-5z" />
<glyph unicode="&#xf6;" d="M88 488q0 240 118 381.5t297 141.5q180 0 287.5 -131.5t107.5 -368.5q0 -243 -114 -389.5t-299 -146.5q-182 0 -289.5 140t-107.5 373zM248 511q0 -200 64.5 -305t185.5 -105q114 0 177 97.5t63 297.5q0 389 -247 389q-119 0 -181 -89.5t-62 -284.5zM202 1254 q0 51 30.5 81t75.5 30q51 0 80 -30t29 -78t-29 -77.5t-82 -29.5q-46 0 -75 29t-29 75zM569 1254q0 51 30 81t76 30q51 0 80 -30t29 -78t-29 -77.5t-83 -29.5q-46 0 -74.5 29t-28.5 75z" />
<glyph unicode="&#xf7;" d="M384 215q0 53 29 83.5t83 30.5q48 0 75.5 -29t27.5 -80t-27.5 -80t-78.5 -29t-80 29t-29 75zM384 837q0 53 29 83.5t83 30.5q48 0 75.5 -29t27.5 -80t-27.5 -80t-78.5 -29t-80 29t-29 75zM76 463v136h834v-136h-834z" />
<glyph unicode="&#xf8;" d="M88 488q0 233 116.5 378t298.5 145q124 0 215 -65l81 129l86 -51l-94 -149q106 -134 107 -364q0 -238 -114 -387t-299 -149q-124 0 -214 68l-81 -131l-89 50l96 154q-109 142 -109 372zM248 511q0 -152 40 -253l357 569q-61 58 -154 58q-114 0 -178.5 -88.5t-64.5 -285.5 zM498 101q114 0 177 100t63 295q0 144 -35 235l-357 -567q58 -63 152 -63z" />
<glyph unicode="&#xf9;" horiz-adv-x="1061" d="M733 860h-126v126h278v-860h126v-126h-265l-8 109h-5q-111 -134 -280 -134q-134 0 -205 70.5t-71 204.5v610h-126v126h278v-710q0 -101 44 -138t120 -37q147 0 240 119v640zM571 1087h-116l-202 304h177z" />
<glyph unicode="&#xfa;" horiz-adv-x="1061" d="M733 860h-126v126h278v-860h126v-126h-265l-8 109h-5q-111 -134 -280 -134q-134 0 -205 70.5t-71 204.5v610h-126v126h278v-710q0 -101 44 -138t120 -37q147 0 240 119v640zM556 1391h177l-202 -304h-116z" />
<glyph unicode="&#xfb;" horiz-adv-x="1061" d="M733 860h-126v126h278v-860h126v-126h-265l-8 109h-5q-111 -134 -280 -134q-134 0 -205 70.5t-71 204.5v610h-126v126h278v-710q0 -101 44 -138t120 -37q147 0 240 119v640zM490 1277l-144 -190h-151l237 304h122l237 -304h-151l-145 190h-5z" />
<glyph unicode="&#xfc;" horiz-adv-x="1061" d="M733 860h-126v126h278v-860h126v-126h-265l-8 109h-5q-111 -134 -280 -134q-134 0 -205 70.5t-71 204.5v610h-126v126h278v-710q0 -101 44 -138t120 -37q147 0 240 119v640zM202 1254q0 51 30.5 81t75.5 30q51 0 80 -30t29 -78t-29 -77.5t-82 -29.5q-46 0 -75 29t-29 75z M569 1254q0 51 30 81t76 30q51 0 80 -30t29 -78t-29 -77.5t-83 -29.5q-46 0 -74.5 29t-28.5 75z" />
<glyph unicode="&#xfd;" d="M860 860l-327 -923q-30 -88 -64 -161.5t-78.5 -128t-105 -82.5t-143.5 -28q-46 0 -91 8v139q48 -8 93 -8q40 0 74.5 9t65 35.5t63 88.5t73.5 178h-13l-293 873h-114v126h379v-126h-111l220 -678h5l230 678h-116v126h379v-126h-126zM556 1391h177l-202 -304h-116z" />
<glyph unicode="&#xfe;" horiz-adv-x="1061" d="M961 523q0 -243 -120 -395.5t-305 -152.5q-96 0 -190 45l-5 -2v-347h152v-126h-430v126h127v1720h-127v126h278v-594l5 -3q106 91 251 91q164 0 264 -139t100 -349zM802 501q0 174 -62 279t-189 105q-111 0 -210 -83v-663q76 -38 177 -38q134 0 209 99t75 301z" />
<glyph unicode="&#xff;" d="M860 860l-327 -923q-30 -88 -64 -161.5t-78.5 -128t-105 -82.5t-143.5 -28q-46 0 -91 8v139q48 -8 93 -8q40 0 74.5 9t65 35.5t63 88.5t73.5 178h-13l-293 873h-114v126h379v-126h-111l220 -678h5l230 678h-116v126h379v-126h-126zM202 1254q0 51 30.5 81t75.5 30 q51 0 80 -30t29 -78t-29 -77.5t-82 -29.5q-46 0 -75 29t-29 75zM569 1254q0 51 30 81t76 30q51 0 80 -30t29 -78t-29 -77.5t-83 -29.5q-46 0 -74.5 29t-28.5 75z" />
<glyph unicode="&#x110;" horiz-adv-x="1289" d="M76 759h152v480h-152v126h452q329 0 486 -163t157 -484q0 -354 -178.5 -536t-509.5 -182h-407v126h152v506h-152v127zM379 126h122q245 0 377.5 139.5t132.5 437.5q0 278 -121 407t-389 129h-122v-480h253v-127h-253v-506z" />
<glyph unicode="&#x131;" horiz-adv-x="530" d="M76 126h126v734h-126v126h278v-860h126v-126h-404v126z" />
<glyph unicode="&#x152;" horiz-adv-x="1744" d="M1535 126v177h134v-303h-759v35q-104 -61 -245 -60q-255 0 -400.5 185.5t-145.5 519.5q0 336 149 523.5t412 187.5q126 0 230 -46v20h733v-303h-134v177h-447v-480h253v126h126v-405h-126v152h-253v-506h473zM675 1252q-197 0 -297 -135.5t-100 -421.5q0 -283 100 -432 t292 -149q144 0 240 73v1004q-96 61 -235 61z" />
<glyph unicode="&#x153;" horiz-adv-x="1517" d="M1441 485h-579q5 -177 68.5 -275.5t204.5 -103.5q154 0 281 84v-137q-121 -78 -291 -78q-235 0 -339 189h-5q-111 -190 -311 -189q-172 0 -277 141.5t-105 371.5q0 233 113 378t287 145q202 0 303 -182h5q119 182 322 182q147 0 235 -116t88 -331v-79zM248 511 q0 -195 60.5 -302.5t174.5 -107.5q106 0 165.5 100t59.5 295q0 190 -58 289.5t-175 99.5q-106 0 -166.5 -88.5t-60.5 -285.5zM1289 607q0 144 -50.5 211t-146.5 67q-91 0 -153 -69.5t-74 -208.5h424z" />
<glyph unicode="&#x178;" horiz-adv-x="1213" d="M531 607l-415 632h-116v126h405v-126h-117l329 -501l319 501h-127v126h405v-126h-119l-412 -632v-481h177v-126h-506v126h177v481zM316 1568q0 51 29 79.5t75 28.5q51 0 78.5 -29t27.5 -77t-28 -76t-81 -28q-46 0 -73.5 28t-27.5 74zM688 1568q0 51 29 79.5t75 28.5 q51 0 78.5 -29t27.5 -77t-28 -76t-81 -28q-46 0 -73.5 28t-27.5 74z" />
<glyph unicode="&#x2c6;" horiz-adv-x="758" d="M376 1277l-144 -190h-151l237 304h122l237 -304h-151l-145 190h-5z" />
<glyph unicode="&#x2dc;" horiz-adv-x="758" d="M88 1171v129q78 56 162 55q66 0 154 -45q63 -30 109 -31q81 0 152 61h5v-129q-78 -56 -162 -56q-66 0 -154 46q-63 30 -109 30q-81 0 -152 -60h-5z" />
<glyph unicode="&#x300;" horiz-adv-x="0" d="M-415 1087h-116l-202 304h177z" />
<glyph unicode="&#x301;" horiz-adv-x="0" d="M-430 1391h177l-202 -304h-116z" />
<glyph unicode="&#x302;" horiz-adv-x="0" d="M-496 1277l-144 -190h-151l237 304h122l237 -304h-151l-145 190h-5z" />
<glyph unicode="&#x303;" horiz-adv-x="0" d="M-784 1171v129q78 56 162 55q66 0 154 -45q63 -30 109 -31q81 0 152 61h5v-129q-78 -56 -162 -56q-66 0 -154 46q-63 30 -109 30q-81 0 -152 -60h-5z" />
<glyph unicode="&#x304;" horiz-adv-x="0" d="M-759 1289h531v-121h-531v121z" />
<glyph unicode="&#x308;" horiz-adv-x="0" d="M-784 1254q0 51 30.5 81t75.5 30q51 0 80 -30t29 -78t-29 -77.5t-82 -29.5q-46 0 -75 29t-29 75zM-417 1254q0 51 30 81t76 30q51 0 80 -30t29 -78t-29 -77.5t-83 -29.5q-46 0 -74.5 29t-28.5 75z" />
<glyph unicode="&#x30a;" horiz-adv-x="0" d="M-683 1252q0 76 53.5 120t138.5 44q91 0 139.5 -44.5t48.5 -117.5q0 -71 -52 -119t-143 -48q-86 0 -135.5 47t-49.5 118zM-579 1254q0 -46 23 -67t63 -21q38 0 62 24t24 64t-24 62t-62 22q-40 0 -63 -22t-23 -62z" />
<glyph unicode="&#x327;" horiz-adv-x="0" d="M-683 -341q48 -10 99 -10q48 0 76 18.5t28 64.5q0 81 -145 81l76 207h117l-48 -131q76 -18 107.5 -62t31.5 -100q0 -88 -66 -141.5t-172 -53.5q-51 0 -104 13v114z" />
<glyph unicode="&#x2000;" horiz-adv-x="885" />
<glyph unicode="&#x2001;" horiz-adv-x="1770" />
<glyph unicode="&#x2002;" horiz-adv-x="885" />
<glyph unicode="&#x2003;" horiz-adv-x="1770" />
<glyph unicode="&#x2004;" horiz-adv-x="590" />
<glyph unicode="&#x2005;" horiz-adv-x="442" />
<glyph unicode="&#x2006;" horiz-adv-x="295" />
<glyph unicode="&#x2007;" horiz-adv-x="295" />
<glyph unicode="&#x2008;" horiz-adv-x="221" />
<glyph unicode="&#x2009;" horiz-adv-x="354" />
<glyph unicode="&#x200a;" horiz-adv-x="98" />
<glyph unicode="&#x2010;" horiz-adv-x="530" d="M76 582h379v-127h-379v127z" />
<glyph unicode="&#x2011;" horiz-adv-x="530" d="M76 582h379v-127h-379v127z" />
<glyph unicode="&#x2012;" horiz-adv-x="530" d="M76 582h379v-127h-379v127z" />
<glyph unicode="&#x2013;" horiz-adv-x="1061" d="M76 582h910v-127h-910v127z" />
<glyph unicode="&#x2014;" horiz-adv-x="2048" d="M76 582h1896v-127h-1896v127z" />
<glyph unicode="&#x2018;" horiz-adv-x="379" d="M185 860q-109 104 -109 215q0 157 179 316l74 -69q-101 -99 -101 -189q0 -73 91 -160z" />
<glyph unicode="&#x2019;" horiz-adv-x="379" d="M195 1391q109 -104 108 -215q0 -157 -179 -316l-73 68q101 99 101 190q0 73 -91 159z" />
<glyph unicode="&#x201a;" horiz-adv-x="379" d="M195 298q109 -104 108 -215q0 -157 -179 -316l-73 69q101 99 101 189q0 73 -91 160z" />
<glyph unicode="&#x201c;" horiz-adv-x="682" d="M185 860q-109 104 -109 215q0 157 179 316l74 -69q-101 -99 -101 -189q0 -73 91 -160zM488 860q-109 104 -109 215q0 157 179 316l74 -69q-101 -99 -101 -189q0 -73 91 -160z" />
<glyph unicode="&#x201d;" horiz-adv-x="682" d="M195 1391q109 -104 108 -215q0 -157 -179 -316l-73 68q101 99 101 190q0 73 -91 159zM498 1391q109 -104 108 -215q0 -157 -179 -316l-73 68q101 99 101 190q0 73 -91 159z" />
<glyph unicode="&#x201e;" horiz-adv-x="682" d="M195 298q109 -104 108 -215q0 -157 -179 -316l-73 69q101 99 101 189q0 73 -91 160zM498 298q109 -104 108 -215q0 -157 -179 -316l-73 69q101 99 101 189q0 73 -91 160z" />
<glyph unicode="&#x2022;" horiz-adv-x="606" d="M139 693q0 76 44.5 121.5t119.5 45.5q73 0 119 -44.5t46 -117.5q0 -78 -45.5 -122.5t-124.5 -44.5q-71 0 -115 44.5t-44 117.5z" />
<glyph unicode="&#x2026;" horiz-adv-x="1365" d="M126 99q0 61 34.5 97.5t92.5 36.5t92 -37t34 -87q0 -63 -35.5 -98.5t-95.5 -35.5q-56 0 -89 35.5t-33 88.5zM582 99q0 61 34 97.5t92 36.5t92 -37t34 -87q0 -63 -35 -98.5t-96 -35.5q-56 0 -88.5 35.5t-32.5 88.5zM1037 99q0 61 34 97.5t92 36.5t92 -37t34 -87 q0 -63 -35 -98.5t-96 -35.5q-56 0 -88.5 35.5t-32.5 88.5z" />
<glyph unicode="&#x202f;" horiz-adv-x="354" />
<glyph unicode="&#x2039;" horiz-adv-x="530" d="M76 493l215 341h164l-215 -341l215 -341h-164z" />
<glyph unicode="&#x203a;" horiz-adv-x="530" d="M455 493l-215 -341h-164l215 341l-215 341h164z" />
<glyph unicode="&#x2044;" horiz-adv-x="227" d="M657 1391l-935 -1391h-152l936 1391h151z" />
<glyph unicode="&#x205f;" horiz-adv-x="442" />
<glyph unicode="&#x2070;" horiz-adv-x="910" d="M126 958q0 212 94 322.5t245 110.5q147 0 233 -110t86 -308q0 -220 -92.5 -331t-241.5 -111q-144 0 -234 111t-90 316zM268 966q0 -157 47 -236.5t140 -79.5q91 0 139 79.5t48 236.5q0 154 -44 230t-143 76q-91 0 -139 -72t-48 -234z" />
<glyph unicode="&#x2074;" horiz-adv-x="834" d="M455 746h-430v101l448 531h134v-518h152v-114h-152v-190h-152v190zM185 860h270v323h-5l-268 -318z" />
<glyph unicode="&#x20ac;" horiz-adv-x="1137" d="M71 607h109q-3 35 -3 73q0 35 3 79h-124l20 113h116q43 245 189.5 382t374.5 137q164 0 306 -56v-235h-126v139q-73 25 -183 25q-349 0 -407 -392h569l-25 -113h-554q-3 -30 -2 -66q0 -43 2 -86h524l-26 -114h-485q33 -197 138 -294.5t272 -97.5q134 0 303 58v-126 q-154 -58 -311 -58q-230 0 -374 132.5t-187 385.5h-142z" />
<glyph unicode="&#x2122;" horiz-adv-x="2123" d="M253 675h131v571h-164v-159h-119v278h708v-278h-114v159h-172v-571h134v-119h-404v119zM1770 1178l-250 -627h-104l-255 610h-6l-17 -486h101v-119h-341v119h118l23 571h-129v119h314l250 -599h5l243 599h306v-119h-122l23 -571h119v-119h-354v119h101l-20 503h-5z" />
<glyph unicode="&#x25fc;" d="M0 986h986v-986h-986v986z" />
<glyph horiz-adv-x="0" d="M-430 1466h-111l-218 279h177z" />
<glyph horiz-adv-x="0" d="M-405 1745h177l-217 -279h-111z" />
<glyph horiz-adv-x="0" d="M-496 1628l-123 -162h-152l215 279h126l215 -279h-152l-124 162h-5z" />
<glyph horiz-adv-x="0" d="M-759 1474v129q58 53 137 53q63 0 152 -48q66 -33 111 -33q76 0 126 58h5v-129q-58 -53 -136 -53q-63 0 -152 48q-66 33 -111 33q-76 0 -126 -58h-6z" />
<glyph horiz-adv-x="0" d="M-784 1568q0 51 29 79.5t75 28.5q51 0 78.5 -29t27.5 -77t-28 -76t-81 -28q-46 0 -73.5 28t-27.5 74zM-412 1568q0 51 29 79.5t75 28.5q51 0 78.5 -29t27.5 -77t-28 -76t-81 -28q-46 0 -73.5 28t-27.5 74z" />
<glyph horiz-adv-x="0" d="M-675 1611q0 76 50.5 117.5t136.5 41.5t131.5 -42t45.5 -112q0 -71 -49.5 -116.5t-137.5 -45.5q-83 0 -130 44.5t-47 112.5zM-576 1616q0 -46 21.5 -66t61.5 -20q38 0 60.5 22.5t22.5 63.5q0 38 -22.5 58t-60.5 20q-40 0 -61.5 -20t-21.5 -58z" />
</font>
</defs>
</svg>
